<mxfile host="app.diagrams.net" modified="2021-02-24T15:39:52.109Z" agent="5.0 (Macintosh; Intel Mac OS X 10_14_6) AppleWebKit/537.36 (KHTML, like Gecko) Chrome/87.0.4280.141 Safari/537.36" etag="4SUMRm6rsu1atBxkNn9v" version="14.4.2" type="github">
  <diagram id="m5yqoC-Fhln_7z7vQIds" name="Page-1">
    <mxGraphModel dx="2916" dy="1106" grid="1" gridSize="10" guides="1" tooltips="1" connect="1" arrows="1" fold="1" page="1" pageScale="1" pageWidth="850" pageHeight="1100" math="0" shadow="0">
      <root>
        <mxCell id="0" />
        <mxCell id="1" parent="0" />
        <mxCell id="JCoDFgwwDfGylt0vfZXB-4" style="edgeStyle=orthogonalEdgeStyle;rounded=0;orthogonalLoop=1;jettySize=auto;html=1;entryX=0.5;entryY=0;entryDx=0;entryDy=0;" parent="1" source="JCoDFgwwDfGylt0vfZXB-1" target="JCoDFgwwDfGylt0vfZXB-2" edge="1">
          <mxGeometry relative="1" as="geometry" />
        </mxCell>
        <mxCell id="JCoDFgwwDfGylt0vfZXB-1" value="argv[0]" style="rounded=1;whiteSpace=wrap;html=1;" parent="1" vertex="1">
          <mxGeometry x="240" y="20" width="120" height="60" as="geometry" />
        </mxCell>
        <mxCell id="JCoDFgwwDfGylt0vfZXB-6" style="edgeStyle=orthogonalEdgeStyle;rounded=0;orthogonalLoop=1;jettySize=auto;html=1;entryX=0.5;entryY=0;entryDx=0;entryDy=0;" parent="1" source="JCoDFgwwDfGylt0vfZXB-2" target="JCoDFgwwDfGylt0vfZXB-5" edge="1">
          <mxGeometry relative="1" as="geometry" />
        </mxCell>
        <mxCell id="JCoDFgwwDfGylt0vfZXB-10" style="edgeStyle=orthogonalEdgeStyle;rounded=0;orthogonalLoop=1;jettySize=auto;html=1;exitX=1;exitY=0.5;exitDx=0;exitDy=0;entryX=0.575;entryY=-0.033;entryDx=0;entryDy=0;entryPerimeter=0;" parent="1" source="JCoDFgwwDfGylt0vfZXB-2" target="JCoDFgwwDfGylt0vfZXB-9" edge="1">
          <mxGeometry relative="1" as="geometry">
            <mxPoint x="510" y="150" as="targetPoint" />
          </mxGeometry>
        </mxCell>
        <mxCell id="JCoDFgwwDfGylt0vfZXB-2" value="%" style="rounded=1;whiteSpace=wrap;html=1;" parent="1" vertex="1">
          <mxGeometry x="240" y="120" width="120" height="60" as="geometry" />
        </mxCell>
        <mxCell id="JCoDFgwwDfGylt0vfZXB-15" style="edgeStyle=orthogonalEdgeStyle;rounded=0;orthogonalLoop=1;jettySize=auto;html=1;entryX=0.5;entryY=0;entryDx=0;entryDy=0;" parent="1" source="JCoDFgwwDfGylt0vfZXB-5" target="JCoDFgwwDfGylt0vfZXB-12" edge="1">
          <mxGeometry relative="1" as="geometry" />
        </mxCell>
        <mxCell id="JCoDFgwwDfGylt0vfZXB-66" style="edgeStyle=orthogonalEdgeStyle;rounded=0;orthogonalLoop=1;jettySize=auto;html=1;entryX=1;entryY=0.5;entryDx=0;entryDy=0;" parent="1" source="JCoDFgwwDfGylt0vfZXB-5" target="JCoDFgwwDfGylt0vfZXB-17" edge="1">
          <mxGeometry relative="1" as="geometry">
            <mxPoint x="630" y="730" as="targetPoint" />
            <Array as="points">
              <mxPoint x="650" y="260" />
              <mxPoint x="650" y="840" />
            </Array>
          </mxGeometry>
        </mxCell>
        <mxCell id="JCoDFgwwDfGylt0vfZXB-5" value="flag" style="rounded=1;whiteSpace=wrap;html=1;" parent="1" vertex="1">
          <mxGeometry x="240" y="230" width="120" height="60" as="geometry" />
        </mxCell>
        <mxCell id="JCoDFgwwDfGylt0vfZXB-8" value="&lt;font style=&quot;font-size: 20px&quot;&gt;yes&lt;/font&gt;" style="text;html=1;strokeColor=none;fillColor=none;align=center;verticalAlign=middle;whiteSpace=wrap;rounded=0;" parent="1" vertex="1">
          <mxGeometry x="310" y="190" width="40" height="20" as="geometry" />
        </mxCell>
        <mxCell id="JCoDFgwwDfGylt0vfZXB-9" value="write stdout" style="rounded=1;whiteSpace=wrap;html=1;" parent="1" vertex="1">
          <mxGeometry x="1790" y="650" width="120" height="60" as="geometry" />
        </mxCell>
        <mxCell id="JCoDFgwwDfGylt0vfZXB-100" style="edgeStyle=orthogonalEdgeStyle;rounded=0;orthogonalLoop=1;jettySize=auto;html=1;entryX=0.5;entryY=0;entryDx=0;entryDy=0;" parent="1" source="JCoDFgwwDfGylt0vfZXB-12" target="JCoDFgwwDfGylt0vfZXB-67" edge="1">
          <mxGeometry relative="1" as="geometry" />
        </mxCell>
        <mxCell id="JCoDFgwwDfGylt0vfZXB-12" value="-0.*" style="rounded=1;whiteSpace=wrap;html=1;" parent="1" vertex="1">
          <mxGeometry x="240" y="340" width="120" height="60" as="geometry" />
        </mxCell>
        <mxCell id="JCoDFgwwDfGylt0vfZXB-13" value="end" style="rounded=1;whiteSpace=wrap;html=1;" parent="1" vertex="1">
          <mxGeometry x="240" y="1380" width="120" height="60" as="geometry" />
        </mxCell>
        <mxCell id="JCoDFgwwDfGylt0vfZXB-16" value="&lt;font style=&quot;font-size: 20px&quot;&gt;yes&lt;/font&gt;" style="text;html=1;align=center;verticalAlign=middle;resizable=0;points=[];autosize=1;" parent="1" vertex="1">
          <mxGeometry x="300" y="300" width="50" height="20" as="geometry" />
        </mxCell>
        <mxCell id="JCoDFgwwDfGylt0vfZXB-114" style="edgeStyle=orthogonalEdgeStyle;rounded=0;orthogonalLoop=1;jettySize=auto;html=1;exitX=0.5;exitY=1;exitDx=0;exitDy=0;entryX=0.5;entryY=0;entryDx=0;entryDy=0;" parent="1" source="JCoDFgwwDfGylt0vfZXB-17" target="JCoDFgwwDfGylt0vfZXB-45" edge="1">
          <mxGeometry relative="1" as="geometry">
            <Array as="points">
              <mxPoint x="300" y="930" />
              <mxPoint x="780" y="930" />
            </Array>
          </mxGeometry>
        </mxCell>
        <mxCell id="JCoDFgwwDfGylt0vfZXB-17" value="cspdiuxX%" style="rounded=1;whiteSpace=wrap;html=1;" parent="1" vertex="1">
          <mxGeometry x="240" y="810" width="120" height="60" as="geometry" />
        </mxCell>
        <mxCell id="JCoDFgwwDfGylt0vfZXB-133" style="edgeStyle=orthogonalEdgeStyle;rounded=0;orthogonalLoop=1;jettySize=auto;html=1;entryX=0.5;entryY=0;entryDx=0;entryDy=0;" parent="1" target="JCoDFgwwDfGylt0vfZXB-37" edge="1">
          <mxGeometry relative="1" as="geometry">
            <mxPoint x="300" y="930" as="sourcePoint" />
            <Array as="points">
              <mxPoint x="-190" y="930" />
            </Array>
          </mxGeometry>
        </mxCell>
        <mxCell id="JCoDFgwwDfGylt0vfZXB-37" value="c" style="rounded=1;whiteSpace=wrap;html=1;" parent="1" vertex="1">
          <mxGeometry x="-250" y="990" width="120" height="60" as="geometry" />
        </mxCell>
        <mxCell id="JCoDFgwwDfGylt0vfZXB-130" style="edgeStyle=orthogonalEdgeStyle;rounded=0;orthogonalLoop=1;jettySize=auto;html=1;exitX=0.5;exitY=0;exitDx=0;exitDy=0;entryX=0.5;entryY=0;entryDx=0;entryDy=0;" parent="1" target="JCoDFgwwDfGylt0vfZXB-39" edge="1">
          <mxGeometry relative="1" as="geometry">
            <mxPoint x="90" y="930" as="sourcePoint" />
          </mxGeometry>
        </mxCell>
        <mxCell id="JCoDFgwwDfGylt0vfZXB-39" value="p" style="rounded=1;whiteSpace=wrap;html=1;" parent="1" vertex="1">
          <mxGeometry x="30" y="990" width="120" height="60" as="geometry" />
        </mxCell>
        <mxCell id="JCoDFgwwDfGylt0vfZXB-131" style="edgeStyle=orthogonalEdgeStyle;rounded=0;orthogonalLoop=1;jettySize=auto;html=1;exitX=0.5;exitY=0;exitDx=0;exitDy=0;entryX=0.5;entryY=0;entryDx=0;entryDy=0;" parent="1" target="JCoDFgwwDfGylt0vfZXB-40" edge="1">
          <mxGeometry relative="1" as="geometry">
            <mxPoint x="230" y="930" as="sourcePoint" />
          </mxGeometry>
        </mxCell>
        <mxCell id="JCoDFgwwDfGylt0vfZXB-40" value="d, i" style="rounded=1;whiteSpace=wrap;html=1;" parent="1" vertex="1">
          <mxGeometry x="170" y="990" width="120" height="60" as="geometry" />
        </mxCell>
        <mxCell id="JCoDFgwwDfGylt0vfZXB-135" style="edgeStyle=orthogonalEdgeStyle;rounded=0;orthogonalLoop=1;jettySize=auto;html=1;exitX=0.5;exitY=0;exitDx=0;exitDy=0;entryX=0.5;entryY=0;entryDx=0;entryDy=0;" parent="1" target="JCoDFgwwDfGylt0vfZXB-41" edge="1">
          <mxGeometry relative="1" as="geometry">
            <mxPoint x="-50" y="930" as="sourcePoint" />
          </mxGeometry>
        </mxCell>
        <mxCell id="JCoDFgwwDfGylt0vfZXB-41" value="s" style="rounded=1;whiteSpace=wrap;html=1;" parent="1" vertex="1">
          <mxGeometry x="-110" y="990" width="120" height="60" as="geometry" />
        </mxCell>
        <mxCell id="JCoDFgwwDfGylt0vfZXB-127" style="edgeStyle=orthogonalEdgeStyle;rounded=0;orthogonalLoop=1;jettySize=auto;html=1;" parent="1" target="JCoDFgwwDfGylt0vfZXB-42" edge="1">
          <mxGeometry relative="1" as="geometry">
            <mxPoint x="365" y="930" as="sourcePoint" />
          </mxGeometry>
        </mxCell>
        <mxCell id="JCoDFgwwDfGylt0vfZXB-42" value="u" style="rounded=1;whiteSpace=wrap;html=1;" parent="1" vertex="1">
          <mxGeometry x="305" y="990" width="120" height="60" as="geometry" />
        </mxCell>
        <mxCell id="JCoDFgwwDfGylt0vfZXB-115" style="edgeStyle=orthogonalEdgeStyle;rounded=0;orthogonalLoop=1;jettySize=auto;html=1;entryX=0.5;entryY=0;entryDx=0;entryDy=0;" parent="1" target="JCoDFgwwDfGylt0vfZXB-43" edge="1">
          <mxGeometry relative="1" as="geometry">
            <mxPoint x="500" y="930" as="targetPoint" />
            <mxPoint x="500" y="930" as="sourcePoint" />
          </mxGeometry>
        </mxCell>
        <mxCell id="JCoDFgwwDfGylt0vfZXB-43" value="x" style="rounded=1;whiteSpace=wrap;html=1;" parent="1" vertex="1">
          <mxGeometry x="440" y="990" width="120" height="60" as="geometry" />
        </mxCell>
        <mxCell id="JCoDFgwwDfGylt0vfZXB-134" style="edgeStyle=orthogonalEdgeStyle;rounded=0;orthogonalLoop=1;jettySize=auto;html=1;exitX=0.5;exitY=0;exitDx=0;exitDy=0;entryX=0.5;entryY=0;entryDx=0;entryDy=0;" parent="1" target="JCoDFgwwDfGylt0vfZXB-44" edge="1">
          <mxGeometry relative="1" as="geometry">
            <mxPoint x="640" y="930" as="sourcePoint" />
          </mxGeometry>
        </mxCell>
        <mxCell id="JCoDFgwwDfGylt0vfZXB-44" value="X" style="rounded=1;whiteSpace=wrap;html=1;" parent="1" vertex="1">
          <mxGeometry x="580" y="990" width="120" height="60" as="geometry" />
        </mxCell>
        <mxCell id="JCoDFgwwDfGylt0vfZXB-45" value="%" style="rounded=1;whiteSpace=wrap;html=1;" parent="1" vertex="1">
          <mxGeometry x="720" y="990" width="120" height="60" as="geometry" />
        </mxCell>
        <mxCell id="JCoDFgwwDfGylt0vfZXB-55" style="edgeStyle=orthogonalEdgeStyle;rounded=0;orthogonalLoop=1;jettySize=auto;html=1;" parent="1" source="JCoDFgwwDfGylt0vfZXB-47" target="JCoDFgwwDfGylt0vfZXB-54" edge="1">
          <mxGeometry relative="1" as="geometry" />
        </mxCell>
        <mxCell id="JCoDFgwwDfGylt0vfZXB-47" value="-" style="rounded=1;whiteSpace=wrap;html=1;" parent="1" vertex="1">
          <mxGeometry x="50" y="530" width="120" height="60" as="geometry" />
        </mxCell>
        <mxCell id="JCoDFgwwDfGylt0vfZXB-61" style="edgeStyle=orthogonalEdgeStyle;rounded=0;orthogonalLoop=1;jettySize=auto;html=1;entryX=0.5;entryY=0;entryDx=0;entryDy=0;" parent="1" source="JCoDFgwwDfGylt0vfZXB-48" target="JCoDFgwwDfGylt0vfZXB-56" edge="1">
          <mxGeometry relative="1" as="geometry" />
        </mxCell>
        <mxCell id="JCoDFgwwDfGylt0vfZXB-48" value="0" style="rounded=1;whiteSpace=wrap;html=1;" parent="1" vertex="1">
          <mxGeometry x="180" y="530" width="120" height="60" as="geometry" />
        </mxCell>
        <mxCell id="JCoDFgwwDfGylt0vfZXB-76" style="edgeStyle=orthogonalEdgeStyle;rounded=0;orthogonalLoop=1;jettySize=auto;html=1;" parent="1" source="JCoDFgwwDfGylt0vfZXB-49" target="JCoDFgwwDfGylt0vfZXB-59" edge="1">
          <mxGeometry relative="1" as="geometry" />
        </mxCell>
        <mxCell id="JCoDFgwwDfGylt0vfZXB-49" value="before ." style="rounded=1;whiteSpace=wrap;html=1;" parent="1" vertex="1">
          <mxGeometry x="430" y="530" width="120" height="60" as="geometry" />
        </mxCell>
        <mxCell id="JCoDFgwwDfGylt0vfZXB-57" style="edgeStyle=orthogonalEdgeStyle;rounded=0;orthogonalLoop=1;jettySize=auto;html=1;" parent="1" source="JCoDFgwwDfGylt0vfZXB-50" target="JCoDFgwwDfGylt0vfZXB-58" edge="1">
          <mxGeometry relative="1" as="geometry">
            <mxPoint x="370" y="530" as="targetPoint" />
          </mxGeometry>
        </mxCell>
        <mxCell id="JCoDFgwwDfGylt0vfZXB-50" value="after ." style="rounded=1;whiteSpace=wrap;html=1;" parent="1" vertex="1">
          <mxGeometry x="305" y="530" width="120" height="60" as="geometry" />
        </mxCell>
        <mxCell id="JCoDFgwwDfGylt0vfZXB-112" style="edgeStyle=orthogonalEdgeStyle;rounded=0;orthogonalLoop=1;jettySize=auto;html=1;exitX=0.5;exitY=1;exitDx=0;exitDy=0;entryX=0;entryY=0.5;entryDx=0;entryDy=0;" parent="1" source="JCoDFgwwDfGylt0vfZXB-54" target="JCoDFgwwDfGylt0vfZXB-103" edge="1">
          <mxGeometry relative="1" as="geometry" />
        </mxCell>
        <mxCell id="JCoDFgwwDfGylt0vfZXB-54" value="fill with blanks on the right" style="rounded=1;whiteSpace=wrap;html=1;" parent="1" vertex="1">
          <mxGeometry x="50" y="620" width="120" height="60" as="geometry" />
        </mxCell>
        <mxCell id="JCoDFgwwDfGylt0vfZXB-106" style="edgeStyle=orthogonalEdgeStyle;rounded=0;orthogonalLoop=1;jettySize=auto;html=1;exitX=0.5;exitY=1;exitDx=0;exitDy=0;entryX=0.5;entryY=0;entryDx=0;entryDy=0;" parent="1" source="JCoDFgwwDfGylt0vfZXB-56" target="JCoDFgwwDfGylt0vfZXB-103" edge="1">
          <mxGeometry relative="1" as="geometry" />
        </mxCell>
        <mxCell id="JCoDFgwwDfGylt0vfZXB-56" value="fill with 0s on the left" style="rounded=1;whiteSpace=wrap;html=1;" parent="1" vertex="1">
          <mxGeometry x="180" y="620" width="120" height="60" as="geometry" />
        </mxCell>
        <mxCell id="JCoDFgwwDfGylt0vfZXB-107" style="edgeStyle=orthogonalEdgeStyle;rounded=0;orthogonalLoop=1;jettySize=auto;html=1;" parent="1" source="JCoDFgwwDfGylt0vfZXB-58" target="JCoDFgwwDfGylt0vfZXB-103" edge="1">
          <mxGeometry relative="1" as="geometry" />
        </mxCell>
        <mxCell id="JCoDFgwwDfGylt0vfZXB-58" value="fill with 0s to match minimum numbers to appear" style="rounded=1;whiteSpace=wrap;html=1;" parent="1" vertex="1">
          <mxGeometry x="305" y="620" width="120" height="60" as="geometry" />
        </mxCell>
        <mxCell id="JCoDFgwwDfGylt0vfZXB-113" style="edgeStyle=orthogonalEdgeStyle;rounded=0;orthogonalLoop=1;jettySize=auto;html=1;exitX=0.5;exitY=1;exitDx=0;exitDy=0;entryX=1;entryY=0.5;entryDx=0;entryDy=0;" parent="1" source="JCoDFgwwDfGylt0vfZXB-59" target="JCoDFgwwDfGylt0vfZXB-103" edge="1">
          <mxGeometry relative="1" as="geometry" />
        </mxCell>
        <mxCell id="JCoDFgwwDfGylt0vfZXB-59" value="fill with blanks on the left" style="rounded=1;whiteSpace=wrap;html=1;" parent="1" vertex="1">
          <mxGeometry x="430" y="620" width="120" height="60" as="geometry" />
        </mxCell>
        <mxCell id="JCoDFgwwDfGylt0vfZXB-98" style="edgeStyle=orthogonalEdgeStyle;rounded=0;orthogonalLoop=1;jettySize=auto;html=1;exitX=0;exitY=1;exitDx=0;exitDy=0;entryX=0.5;entryY=0;entryDx=0;entryDy=0;" parent="1" source="JCoDFgwwDfGylt0vfZXB-67" target="JCoDFgwwDfGylt0vfZXB-48" edge="1">
          <mxGeometry relative="1" as="geometry" />
        </mxCell>
        <mxCell id="JCoDFgwwDfGylt0vfZXB-99" style="edgeStyle=orthogonalEdgeStyle;rounded=0;orthogonalLoop=1;jettySize=auto;html=1;exitX=1;exitY=1;exitDx=0;exitDy=0;" parent="1" source="JCoDFgwwDfGylt0vfZXB-67" edge="1">
          <mxGeometry relative="1" as="geometry">
            <mxPoint x="360" y="530" as="targetPoint" />
          </mxGeometry>
        </mxCell>
        <mxCell id="JCoDFgwwDfGylt0vfZXB-101" style="edgeStyle=orthogonalEdgeStyle;rounded=0;orthogonalLoop=1;jettySize=auto;html=1;" parent="1" source="JCoDFgwwDfGylt0vfZXB-67" edge="1">
          <mxGeometry relative="1" as="geometry">
            <mxPoint x="490" y="530" as="targetPoint" />
          </mxGeometry>
        </mxCell>
        <mxCell id="JCoDFgwwDfGylt0vfZXB-102" style="edgeStyle=orthogonalEdgeStyle;rounded=0;orthogonalLoop=1;jettySize=auto;html=1;entryX=0.5;entryY=0;entryDx=0;entryDy=0;" parent="1" source="JCoDFgwwDfGylt0vfZXB-67" target="JCoDFgwwDfGylt0vfZXB-47" edge="1">
          <mxGeometry relative="1" as="geometry" />
        </mxCell>
        <mxCell id="JCoDFgwwDfGylt0vfZXB-67" value="get value of amount to be filled" style="rounded=1;whiteSpace=wrap;html=1;" parent="1" vertex="1">
          <mxGeometry x="240" y="440" width="120" height="60" as="geometry" />
        </mxCell>
        <mxCell id="JCoDFgwwDfGylt0vfZXB-79" value="&lt;font style=&quot;font-size: 20px&quot;&gt;no&lt;/font&gt;" style="text;html=1;align=center;verticalAlign=middle;resizable=0;points=[];autosize=1;" parent="1" vertex="1">
          <mxGeometry x="660" y="460" width="40" height="20" as="geometry" />
        </mxCell>
        <mxCell id="JCoDFgwwDfGylt0vfZXB-95" value="" style="rounded=1;whiteSpace=wrap;html=1;" parent="1" vertex="1">
          <mxGeometry x="500" y="20" width="120" height="60" as="geometry" />
        </mxCell>
        <mxCell id="JCoDFgwwDfGylt0vfZXB-108" style="edgeStyle=orthogonalEdgeStyle;rounded=0;orthogonalLoop=1;jettySize=auto;html=1;entryX=0.5;entryY=0;entryDx=0;entryDy=0;" parent="1" source="JCoDFgwwDfGylt0vfZXB-103" target="JCoDFgwwDfGylt0vfZXB-17" edge="1">
          <mxGeometry relative="1" as="geometry" />
        </mxCell>
        <mxCell id="JCoDFgwwDfGylt0vfZXB-103" value="check overrides&lt;br&gt;" style="rounded=1;whiteSpace=wrap;html=1;" parent="1" vertex="1">
          <mxGeometry x="240" y="720" width="120" height="60" as="geometry" />
        </mxCell>
      </root>
    </mxGraphModel>
  </diagram>
</mxfile>
